<?xml version="1.0" encoding="iso-8859-1"?>
<!-- Uploaded to: SVG Repo, www.svgrepo.com, Generator: SVG Repo Mixer Tools -->
<svg fill="#000000" height="800px" width="800px" version="1.1" id="Capa_1" xmlns="http://www.w3.org/2000/svg" xmlns:xlink="http://www.w3.org/1999/xlink" 
	 viewBox="0 0 520.2 520.2" xml:space="preserve">
<g>
	<g>
		<path d="M448.8,188.7c-39.372,0-71.4,32.028-71.4,71.4s32.028,71.4,71.4,71.4s71.4-32.028,71.4-71.4S488.172,188.7,448.8,188.7z
			 M448.8,311.1c-28.152,0-51-22.848-51-51s22.848-51,51-51c28.152,0,51,22.848,51,51S476.952,311.1,448.8,311.1z"/>
		<path d="M448.8,224.4c-19.584,0-35.7,16.116-35.7,35.7c0,2.856,2.244,5.1,5.1,5.1s5.1-2.244,5.1-5.1
			c0-14.076,11.424-25.5,25.5-25.5c2.856,0,5.1-2.244,5.1-5.1S451.656,224.4,448.8,224.4z"/>
		<path d="M260.1,188.7c-39.372,0-71.4,32.028-71.4,71.4s32.028,71.4,71.4,71.4s71.4-32.028,71.4-71.4S299.472,188.7,260.1,188.7z
			 M260.1,311.1c-28.152,0-51-22.848-51-51s22.848-51,51-51s51,22.848,51,51S288.252,311.1,260.1,311.1z"/>
		<path d="M260.1,224.4c-19.584,0-35.7,16.116-35.7,35.7c0,2.856,2.244,5.1,5.1,5.1s5.1-2.244,5.1-5.1
			c0-14.076,11.424-25.5,25.5-25.5c2.856,0,5.1-2.244,5.1-5.1S262.956,224.4,260.1,224.4z"/>
		<path d="M71.4,188.7C32.028,188.7,0,220.728,0,260.1s32.028,71.4,71.4,71.4s71.4-32.028,71.4-71.4S110.772,188.7,71.4,188.7z
			 M71.4,311.1c-28.152,0-51-22.848-51-51s22.848-51,51-51s51,22.848,51,51S99.552,311.1,71.4,311.1z"/>
		<path d="M71.4,224.4c-19.584,0-35.7,16.116-35.7,35.7c0,2.856,2.244,5.1,5.1,5.1s5.1-2.244,5.1-5.1
			c0-14.076,11.424-25.5,25.5-25.5c2.856,0,5.1-2.244,5.1-5.1S74.256,224.4,71.4,224.4z"/>
	</g>
</g>
</svg>